<svg width="32" height="32" viewBox="0 0 32 32" fill="none" xmlns="http://www.w3.org/2000/svg">
<g clip-path="url(#clip0_315_2)">
<path d="M31.7723 4.7238L16.7988 31.499C16.4896 32.0518 15.6954 32.055 15.3816 31.5049L0.111229 4.72629C-0.230686 4.12688 0.281937 3.40071 0.961283 3.52224L15.9509 6.2014C16.0465 6.21849 16.1444 6.21832 16.24 6.2009L30.916 3.52597C31.5931 3.40258 32.1081 4.12314 31.7723 4.7238Z" fill="url(#paint0_linear_315_2)"/>
<g clip-path="url(#clip1_315_2)">
<path d="M25.9802 3.32518L25.303 3L19.2079 15.5599L16.4079 9.79139L19.5465 3.32518L18.8693 3L15.9921 8.93015L13.1109 3L12.4337 3.32518L15.5723 9.79139L12.7723 15.5599L6.67723 3L6 3.32518L12.3545 16.4212L6 29.5172L6.67723 29.8423L12.7723 17.2824L15.5723 23.0509L12.4337 29.5172L13.1109 29.8423L15.9881 23.9122L18.8653 29.8423L19.5426 29.5172L16.404 23.0509L19.204 17.2824L25.299 29.8423L25.9762 29.5172L19.6218 16.4212L25.9802 3.32518ZM15.9901 22.1897L13.1901 16.4212L15.9901 10.6526L18.7901 16.4212L15.9901 22.1897Z" fill="white"/>
</g>
<path d="M25.9802 3.32518L25.303 3L19.2079 15.5599L16.4079 9.79139L19.5465 3.32518L18.8693 3L15.9921 8.93015L13.1109 3L12.4337 3.32518L15.5723 9.79139L12.7723 15.5599L6.67723 3L6 3.32518L12.3545 16.4212L6 29.5172L6.67723 29.8423L12.7723 17.2824L15.5723 23.0509L12.4337 29.5172L13.1109 29.8423L15.9881 23.9122L18.8653 29.8423L19.5426 29.5172L16.404 23.0509L19.204 17.2824L25.299 29.8423L25.9762 29.5172L19.6218 16.4212L25.9802 3.32518ZM15.9901 22.1897L13.1901 16.4212L15.9901 10.6526L18.7901 16.4212L15.9901 22.1897Z" fill="white"/>
<path d="M13 3L12.5 3.5L25 30L26 29.5L13 3Z" stroke="white"/>
<path d="M19 3L19.5 3.5L7 30L6 29.5L19 3Z" stroke="white"/>
<path d="M25 3L25.5 3.5L13 30L12 29.5L25 3Z" stroke="white"/>
<path d="M6.5 3L6 3.5L18.5 30L19.5 29.5L6.5 3Z" stroke="white"/>
</g>
<defs>
<linearGradient id="paint0_linear_315_2" x1="-0.261609" y1="5.68247" x2="15.8872" y2="27.614" gradientUnits="userSpaceOnUse">
<stop stop-color="#A041FF"/>
<stop offset="1" stop-color="#5C21A8"/>
</linearGradient>
<clipPath id="clip0_315_2">
<rect width="31.88" height="32" fill="white"/>
</clipPath>
<clipPath id="clip1_315_2">
<rect width="20" height="27" fill="white" transform="translate(6 3)"/>
</clipPath>
</defs>
</svg>
