<svg width="24" height="24" viewBox="0 0 24 24" fill="none" xmlns="http://www.w3.org/2000/svg">
<path d="M12 12L3.048 8.42402L3.6 21.6H1.2L1.776 7.90802L0 7.20002L12 2.40002L24 7.20002L12 12ZM12 6.00002C11.34 6.00002 10.8 6.26402 10.8 6.60002C10.8 6.93602 11.34 7.20002 12 7.20002C12.66 7.20002 13.2 6.93602 13.2 6.60002C13.2 6.26402 12.66 6.00002 12 6.00002ZM12 13.2L18.684 10.524C19.536 11.652 20.124 13.008 20.316 14.484C19.956 14.436 19.584 14.4 19.2 14.4C16.14 14.4 13.464 16.044 12 18.492C11.2569 17.2449 10.2027 16.2122 8.94057 15.4949C7.67846 14.7776 6.25171 14.4003 4.8 14.4C4.416 14.4 4.044 14.436 3.684 14.484C3.876 13.008 4.464 11.652 5.316 10.524L12 13.2Z" fill="white"/>
</svg>
