<svg width="101" height="137" viewBox="0 0 101 137" fill="none" xmlns="http://www.w3.org/2000/svg">
<g clip-path="url(#clip0_303_2)">
<path d="M100.9 1.65L97.48 0L66.7 63.73L52.56 34.46L68.41 1.65L64.99 0L50.46 30.09L35.91 0L32.49 1.65L48.34 34.46L34.2 63.73L3.42 0L0 1.65L32.09 68.1L0 134.55L3.42 136.2L34.2 72.47L48.34 101.74L32.49 134.55L35.91 136.2L50.44 106.11L64.97 136.2L68.39 134.55L52.54 101.74L66.68 72.47L97.46 136.2L100.88 134.55L68.79 68.1L100.9 1.65ZM50.45 97.37L36.31 68.1L50.45 38.83L64.59 68.1L50.45 97.37Z" fill="white"/>
</g>
<defs>
<clipPath id="clip0_303_2">
<rect width="100.9" height="136.2" fill="white"/>
</clipPath>
</defs>
</svg>
