<svg width="24" height="24" viewBox="0 0 24 24" fill="none" xmlns="http://www.w3.org/2000/svg">
<path d="M17.3333 9C17.3333 4.85625 13.4542 1.5 8.66667 1.5C3.87917 1.5 0 4.85625 0 9C0 10.6078 0.5875 12.0891 1.58333 13.3125C1.025 14.7281 0.104167 15.8531 0.0916667 15.8672C0 15.975 -0.025 16.1344 0.0291667 16.275C0.0833333 16.4156 0.2 16.5 0.333333 16.5C1.85833 16.5 3.12083 15.9234 4.02917 15.3281C5.37083 16.0641 6.95833 16.5 8.66667 16.5C13.4542 16.5 17.3333 13.1438 17.3333 9ZM22.4167 19.3125C23.4125 18.0938 24 16.6078 24 15C24 11.8641 21.7708 9.17812 18.6125 8.05781C18.65 8.36719 18.6667 8.68125 18.6667 9C18.6667 13.9641 14.1792 18 8.66667 18C8.21667 18 7.77917 17.9625 7.34583 17.9109C8.65833 20.6063 11.7417 22.5 15.3333 22.5C17.0417 22.5 18.6292 22.0688 19.9708 21.3281C20.8792 21.9234 22.1417 22.5 23.6667 22.5C23.8 22.5 23.9208 22.4109 23.9708 22.275C24.025 22.1391 24 21.9797 23.9083 21.8672C23.8958 21.8531 22.975 20.7328 22.4167 19.3125Z" fill="white"/>
</svg>
